<svg width="96.287109" height="166.118195" viewBox="0 0 96.2871 166.118" fill="none" xmlns="http://www.w3.org/2000/svg" xmlns:xlink="http://www.w3.org/1999/xlink">
	<defs/>
	<path id="Vector" d="M11.9277 2.72159L86.4746 2.72159L86.4746 10.424L11.9277 10.424L11.9277 2.72159Z" stroke="#040306" stroke-opacity="1.000000" stroke-width="0.222557" stroke-linejoin="round"/>
	<path id="Vector" d="M11.9277 6.31738L86.4624 6.31738L86.4624 8.36154L11.9277 8.36154L11.9277 6.31738Z" stroke="#040306" stroke-opacity="1.000000" stroke-width="0.222557" stroke-linejoin="round"/>
	<path id="Vector" d="M75.0781 147.817L75.0781 166.007C75.0781 166.007 59.0103 165.821 56.9551 147.631" stroke="#040306" stroke-opacity="1.000000" stroke-width="0.222557" stroke-linejoin="round" stroke-linecap="round"/>
	<path id="Vector" d="M50.6504 122.679L67.0874 122.679C67.0874 122.679 66.9194 108.877 50.4824 107.112" stroke="#040306" stroke-opacity="1.000000" stroke-width="0.222557" stroke-linejoin="round" stroke-linecap="round"/>
	<path id="Vector" d="M4.63477 62.4709L6.61035 62.4709" stroke="#040306" stroke-opacity="1.000000" stroke-width="0.222557" stroke-linejoin="round" stroke-linecap="round"/>
	<path id="Vector" d="M10.4629 62.4709L47.0864 62.4709" stroke="#040306" stroke-opacity="1.000000" stroke-width="0.222557" stroke-linejoin="round" stroke-dasharray="3.88095 3.88095"/>
	<path id="Vector" d="M49.0176 62.4709L50.9912 62.4709L50.9912 64.3592" stroke="#040306" stroke-opacity="1.000000" stroke-width="0.222557" stroke-linejoin="round" stroke-linecap="round"/>
	<path id="Vector" d="M50.9902 67.9904L50.9902 87.9545" stroke="#040306" stroke-opacity="1.000000" stroke-width="0.222557" stroke-linejoin="round" stroke-dasharray="3.8191 3.8191"/>
	<path id="Vector" d="M50.9902 89.7717L50.9902 91.66" stroke="#040306" stroke-opacity="1.000000" stroke-width="0.222557" stroke-linejoin="round" stroke-linecap="round"/>
	<path id="Vector" d="M50.9902 101.272L52.9639 101.272" stroke="#040306" stroke-opacity="1.000000" stroke-width="0.222557" stroke-linejoin="round" stroke-linecap="round"/>
	<path id="Vector" d="M57.6113 101.272L73.8784 101.272" stroke="#040306" stroke-opacity="1.000000" stroke-width="0.222557" stroke-linejoin="round" stroke-dasharray="4.67875 4.67875"/>
	<path id="Vector" d="M76.2051 101.272L78.1787 101.272" stroke="#040306" stroke-opacity="1.000000" stroke-width="0.222557" stroke-linejoin="round" stroke-linecap="round"/>
	<path id="Vector" d="M4.63867 91.6623L50.9937 91.6623L50.9937 93.7778L4.63867 93.7778L4.63867 91.6623Z" fill="#040306" fill-opacity="1.000000" fill-rule="evenodd"/>
	<path id="Vector" d="M48.9668 91.6623L50.9941 91.6623L50.9941 106.829L48.9668 106.829L48.9668 91.6623Z" fill="#040306" fill-opacity="1.000000" fill-rule="evenodd"/>
	<path id="Vector" d="M49.0137 123.494L50.9961 123.494L50.9961 134.516L49.0137 134.516L49.0137 123.494Z" fill="#040306" fill-opacity="1.000000" fill-rule="evenodd"/>
	<path id="Vector" d="M8.04883 95.3654L8.9707 95.3654L8.9707 132.928L8.04883 132.928L8.04883 95.3654Z" fill="#040306" fill-opacity="1.000000" fill-rule="evenodd"/>
	<path id="Vector" d="M8.04883 95.3654L49.5137 95.3654L49.5137 96.2027L8.04883 96.2027L8.04883 95.3654Z" fill="#040306" fill-opacity="1.000000" fill-rule="evenodd"/>
	<path id="Vector" d="M30.3965 132.045L31.3633 132.045L31.3633 134.293L30.3965 134.293L30.3965 132.045Z" fill="#040306" fill-opacity="1.000000" fill-rule="evenodd"/>
	<path id="Vector" d="M8.04883 132.045L31.3647 132.045L31.3647 132.927L8.04883 132.927L8.04883 132.045Z" fill="#040306" fill-opacity="1.000000" fill-rule="evenodd"/>
	<path id="Vector" d="M78.1816 99.5959L91.9136 99.5959L91.9136 101.272L78.1816 101.272L78.1816 99.5959Z" fill="#040306" fill-opacity="1.000000" fill-rule="evenodd"/>
	<g opacity="0.800000">
		<g opacity="0.800000">
			<path id="Vector" d="M18.4307 78.924L18.4307 91.7726L5.00195 91.7726L5.00195 78.924L18.4307 78.924Z" stroke="#040306" stroke-opacity="1.000000" stroke-width="0.111270" stroke-linejoin="round"/>
		</g>
		<g opacity="0.800000">
			<path id="Vector" d="M11.7236 87.4911C11.1675 87.4911 10.7168 87.0599 10.7168 86.5279C10.7168 85.9959 11.1675 85.5647 11.7236 85.5647C12.2793 85.5647 12.7305 85.9959 12.7305 86.5279C12.7305 87.0599 12.2793 87.4911 11.7236 87.4911Z" stroke="#040306" stroke-opacity="1.000000" stroke-width="0.111270" stroke-linejoin="round"/>
		</g>
		<g opacity="0.800000">
			<path id="Vector" d="M11.7256 90.2203C11.5093 90.2203 11.334 90.0525 11.334 89.8456C11.334 89.6387 11.5093 89.4709 11.7256 89.4709C11.9419 89.4709 12.1172 89.6387 12.1172 89.8456C12.1172 90.0525 11.9419 90.2203 11.7256 90.2203Z" stroke="#040306" stroke-opacity="1.000000" stroke-width="0.111270" stroke-linejoin="round"/>
		</g>
		<g opacity="0.800000">
			<path id="Vector" d="M15.6201 90.2203C15.4038 90.2203 15.2285 90.0525 15.2285 89.8456C15.2285 89.6387 15.4038 89.4709 15.6201 89.4709C15.8364 89.4709 16.0117 89.6387 16.0117 89.8456C16.0117 90.0525 15.8364 90.2203 15.6201 90.2203Z" stroke="#040306" stroke-opacity="1.000000" stroke-width="0.111270" stroke-linejoin="round"/>
		</g>
		<g opacity="0.800000">
			<path id="Vector" d="M6.16748 79.9944C6.14014 79.9944 6.11914 80.0159 6.11914 80.0408L6.11914 90.6544C6.11914 90.681 6.1416 90.7009 6.16748 90.7009L17.2607 90.7009C17.2886 90.7009 17.3091 90.6793 17.3091 90.6544L17.3091 80.0408C17.311 80.0143 17.2886 79.9944 17.2607 79.9944L6.16748 79.9944Z" stroke="#040306" stroke-opacity="1.000000" stroke-width="0.111270" stroke-linejoin="round"/>
		</g>
		<g opacity="0.800000">
			<path id="Vector" d="M6.73389 80.5295C6.70654 80.5295 6.68555 80.5511 6.68555 80.5759L6.68555 89.0476C6.68555 89.0742 6.70801 89.0941 6.73389 89.0941L16.708 89.0941C16.7354 89.0941 16.7563 89.0725 16.7563 89.0476L16.7563 80.5759C16.7583 80.5511 16.7354 80.5295 16.708 80.5295L6.73389 80.5295Z" stroke="#040306" stroke-opacity="1.000000" stroke-width="0.111270" stroke-linejoin="round"/>
		</g>
	</g>
	<g opacity="0.800000">
		<g opacity="0.800000">
			<path id="Vector" d="M26.9731 96.1115L9.06836 96.1115L9.06836 113.242L15.627 113.242L15.627 112.438L9.9917 112.438L9.9917 100.172L13.2876 96.9156L26.0234 96.9156L26.0234 102.385L26.9731 102.385L26.9731 96.1115Z" stroke="#040306" stroke-opacity="1.000000" stroke-width="0.111270" stroke-linejoin="round"/>
		</g>
		<g opacity="0.800000">
			<path id="Vector" d="M15.627 113.242C21.8926 113.242 26.9731 108.382 26.9731 102.385" stroke="#040306" stroke-opacity="1.000000" stroke-width="0.111270" stroke-linejoin="round" stroke-linecap="round"/>
		</g>
		<g opacity="0.800000">
			<path id="Vector" d="M12.939 99.3048L12.8853 99.2518L12.3237 98.7146C12.3237 98.7146 12.0552 98.4742 11.8179 98.7014C11.582 98.9285 11.833 99.1838 11.833 99.1838L12.3931 99.7209L12.4482 99.774L13.7114 100.983C13.7114 100.983 13.98 101.223 14.2173 100.997C14.4531 100.77 14.2021 100.513 14.2021 100.513L12.939 99.3048Z" stroke="#040306" stroke-opacity="1.000000" stroke-width="0.111270" stroke-linejoin="round"/>
		</g>
		<g opacity="0.800000">
			<path id="Vector" d="M17.2212 104.109C16.7983 104.513 16.0967 104.513 15.6772 104.109C15.2559 103.706 15.2559 103.034 15.6772 102.63C16.0947 102.225 16.7983 102.225 17.2212 102.63C17.6421 103.033 17.6421 103.706 17.2212 104.109Z" stroke="#040306" stroke-opacity="1.000000" stroke-width="0.111270" stroke-linejoin="round"/>
		</g>
		<g opacity="0.800000">
			<path id="Vector" d="M12.3208 98.7134L12.7593 99.1328C13.0938 98.7913 13.3901 98.4365 13.5874 98.1232C13.686 97.9673 13.7764 97.8082 13.8579 97.6457C13.915 97.5296 13.896 97.3987 13.811 97.3158C13.6357 97.1831 13.4609 97.0489 13.2861 96.9162C13.0972 97.1036 12.9082 97.2892 12.7192 97.4766C12.728 97.4832 12.7402 97.4932 12.749 97.5097C12.8164 97.6241 12.6465 97.8413 12.5493 97.9342C11.77 98.6819 11.4927 98.9322 11.0522 99.3682C10.9761 99.4445 10.7612 99.6617 10.6348 99.607C10.6157 99.5987 10.6021 99.5854 10.5952 99.5771C10.394 99.7761 10.1914 99.975 9.99023 100.174C10.1304 100.317 10.2676 100.431 10.4077 100.573C10.4927 100.653 10.6245 100.675 10.7441 100.622C10.9277 100.54 11.1045 100.446 11.2759 100.346C11.5825 100.166 11.9312 99.9021 12.2671 99.6036L11.8286 99.1842C11.8306 99.1825 11.5791 98.9272 11.8149 98.7001C12.0503 98.4746 12.3208 98.7134 12.3208 98.7134Z" stroke="#040306" stroke-opacity="1.000000" stroke-width="0.111270" stroke-linejoin="round"/>
		</g>
		<g opacity="0.800000">
			<path id="Vector" d="M15.2319 99.5329C14.6133 98.941 13.6587 98.8714 12.9585 99.3224L14.2012 100.511C14.2012 100.511 14.4521 100.768 14.2163 100.995C13.979 101.221 13.7104 100.98 13.7104 100.98L12.4683 99.7915C11.9971 100.461 12.0698 101.375 12.688 101.967C13.3916 102.638 14.5283 102.638 15.2319 101.967C15.9336 101.295 15.9336 100.206 15.2319 99.5329Z" stroke="#040306" stroke-opacity="1.000000" stroke-width="0.111270" stroke-linejoin="round"/>
		</g>
	</g>
	<g opacity="0.800000">
		<g opacity="0.800000">
			<path id="Vector" d="M11.1309 124.353C10.9282 124.353 10.7637 124.195 10.7637 124C10.7637 123.805 10.9282 123.647 11.1309 123.647C11.334 123.647 11.4985 123.805 11.4985 124C11.4985 124.195 11.334 124.353 11.1309 124.353Z" stroke="#040306" stroke-opacity="1.000000" stroke-width="0.111270" stroke-linejoin="round"/>
		</g>
		<g opacity="0.800000">
			<path id="Vector" d="M11.1309 124.616L11.1309 124.354" stroke="#040306" stroke-opacity="1.000000" stroke-width="0.111270" stroke-linejoin="round" stroke-linecap="round"/>
		</g>
		<g opacity="0.800000">
			<path id="Vector" d="M11.1309 123.649L11.1309 123.385" stroke="#040306" stroke-opacity="1.000000" stroke-width="0.111270" stroke-linejoin="round" stroke-linecap="round"/>
		</g>
		<g opacity="0.800000">
			<path id="Vector" d="M11.7734 124.002L11.498 124.002" stroke="#040306" stroke-opacity="1.000000" stroke-width="0.111270" stroke-linejoin="round" stroke-linecap="round"/>
		</g>
		<g opacity="0.800000">
			<path id="Vector" d="M10.7642 124.002L10.4902 124.002" stroke="#040306" stroke-opacity="1.000000" stroke-width="0.111270" stroke-linejoin="round" stroke-linecap="round"/>
		</g>
		<g opacity="0.800000">
			<path id="Vector" d="M14.1152 125.963L14.1152 125.822" stroke="#040306" stroke-opacity="1.000000" stroke-width="0.111270" stroke-linejoin="round" stroke-linecap="round"/>
		</g>
		<g opacity="0.800000">
			<path id="Vector" d="M14.1152 125.44L14.1152 125.299" stroke="#040306" stroke-opacity="1.000000" stroke-width="0.111270" stroke-linejoin="round" stroke-linecap="round"/>
		</g>
		<g opacity="0.800000">
			<path id="Vector" d="M14.4619 125.631L14.3145 125.631" stroke="#040306" stroke-opacity="1.000000" stroke-width="0.111270" stroke-linejoin="round" stroke-linecap="round"/>
		</g>
		<g opacity="0.800000">
			<path id="Vector" d="M13.9165 125.631L13.7676 125.631" stroke="#040306" stroke-opacity="1.000000" stroke-width="0.111270" stroke-linejoin="round" stroke-linecap="round"/>
		</g>
		<g opacity="0.800000">
			<path id="Vector" d="M14.1138 125.825C14.0044 125.825 13.916 125.74 13.916 125.634C13.916 125.529 14.0044 125.444 14.1138 125.444C14.2227 125.444 14.311 125.529 14.311 125.634C14.311 125.74 14.2227 125.825 14.1138 125.825Z" stroke="#040306" stroke-opacity="1.000000" stroke-width="0.111270" stroke-linejoin="round"/>
		</g>
		<g opacity="0.800000">
			<path id="Vector" d="M14.1138 122.559C14.0044 122.559 13.916 122.474 13.916 122.369C13.916 122.263 14.0044 122.178 14.1138 122.178C14.2227 122.178 14.311 122.263 14.311 122.369C14.311 122.474 14.2227 122.559 14.1138 122.559Z" stroke="#040306" stroke-opacity="1.000000" stroke-width="0.111270" stroke-linejoin="round"/>
		</g>
		<g opacity="0.800000">
			<path id="Vector" d="M14.1152 122.703L14.1152 122.561" stroke="#040306" stroke-opacity="1.000000" stroke-width="0.111270" stroke-linejoin="round" stroke-linecap="round"/>
		</g>
		<g opacity="0.800000">
			<path id="Vector" d="M14.1152 122.184L14.1152 122.041" stroke="#040306" stroke-opacity="1.000000" stroke-width="0.111270" stroke-linejoin="round" stroke-linecap="round"/>
		</g>
		<g opacity="0.800000">
			<path id="Vector" d="M14.4619 122.369L14.3145 122.369" stroke="#040306" stroke-opacity="1.000000" stroke-width="0.111270" stroke-linejoin="round" stroke-linecap="round"/>
		</g>
		<g opacity="0.800000">
			<path id="Vector" d="M13.9165 122.369L13.7676 122.369" stroke="#040306" stroke-opacity="1.000000" stroke-width="0.111270" stroke-linejoin="round" stroke-linecap="round"/>
		</g>
		<g opacity="0.800000">
			<path id="Vector" d="M16.9263 120.587C15.4155 120.844 14.4033 121.156 12.8926 121.413C12.9863 122.19 13.0483 123.059 13.0483 124.003C13.0483 124.949 12.9863 125.821 12.8926 126.602C14.4033 126.859 15.4155 127.161 16.9263 127.418C17.0098 127.426 17.1362 127.438 17.2886 127.448C18.1948 127.504 19.7212 127.6 21.0972 126.887C21.3188 126.773 21.7661 126.536 22.1938 126.083C22.4507 125.813 23.1108 125.093 23.1108 124.029C23.1108 124.021 23.1108 124.012 23.1089 124.003C23.1089 123.994 23.1108 123.986 23.1108 123.976C23.1108 122.912 22.4507 122.192 22.1938 121.922C21.7661 121.471 21.3188 121.234 21.0972 121.118C19.7212 120.403 18.1948 120.499 17.2886 120.557C17.1343 120.567 17.0098 120.579 16.9263 120.587Z" stroke="#040306" stroke-opacity="1.000000" stroke-width="0.111270" stroke-linejoin="round"/>
		</g>
		<g opacity="0.800000">
			<path id="Vector" d="M16.061 121.594C15.416 122.015 15.1548 122.582 15.0732 122.768C14.8496 123.272 14.8496 123.699 14.8496 123.999C14.8496 124.298 14.8496 124.727 15.0732 125.231C15.1548 125.415 15.416 125.982 16.061 126.405C16.5825 126.746 17.0918 126.821 17.5459 126.881C18.1245 126.959 19.6392 127.159 21.0024 126.309C21.3423 126.097 22.0581 125.642 22.354 124.77C22.415 124.59 22.6035 123.965 22.354 123.23C22.0581 122.358 21.3423 121.904 21.0024 121.692C19.6392 120.839 18.1245 121.042 17.5459 121.118C17.0918 121.179 16.5825 121.252 16.061 121.594Z" stroke="#040306" stroke-opacity="1.000000" stroke-width="0.111270" stroke-linejoin="round"/>
		</g>
		<g opacity="0.800000">
			<path id="Vector" d="M15.4316 124.003C15.4302 124.233 15.4282 125.114 16.1216 125.79C16.7349 126.387 17.5786 126.516 18.2476 126.513C18.6616 126.51 18.979 126.478 19.2354 126.435C19.8711 126.327 20.5107 126.22 21.0601 125.774C21.4932 125.422 21.9487 124.795 21.9399 123.998C21.9297 123.055 21.2764 122.446 21.0493 122.259C20.4795 121.788 19.8159 121.674 19.2354 121.573C18.9995 121.531 18.6738 121.496 18.2476 121.495C17.5786 121.488 16.7349 121.619 16.1216 122.216C15.4268 122.891 15.4302 123.772 15.4316 124.003Z" stroke="#040306" stroke-opacity="1.000000" stroke-width="0.111270" stroke-linejoin="round"/>
		</g>
		<g opacity="0.800000">
			<path id="Vector" d="M16.0356 123.37C15.9438 123.455 15.8833 123.541 15.8418 123.609C15.8418 123.611 15.8418 123.612 15.8418 123.612C15.8418 123.972 15.8418 124.027 15.8418 124.383C15.8418 124.385 15.8418 124.387 15.8418 124.387C15.8833 124.456 15.9438 124.541 16.0356 124.625C16.1987 124.776 16.3755 124.851 16.4849 124.887C16.9854 124.901 17.4863 124.912 17.9854 124.925C18.0527 124.922 18.3057 124.901 18.5137 124.715C18.6768 124.571 18.7231 124.405 18.7388 124.339C18.7388 124.111 18.7388 123.883 18.7388 123.655C18.7231 123.589 18.6768 123.423 18.5137 123.279C18.3057 123.093 18.0527 123.072 17.9854 123.069C17.4844 123.083 16.9839 123.097 16.4849 123.108C16.3755 123.145 16.1987 123.219 16.0356 123.37Z" stroke="#040306" stroke-opacity="1.000000" stroke-width="0.111270" stroke-linejoin="round"/>
		</g>
		<g opacity="0.800000">
			<path id="Vector" d="M17.0762 123.092C17.1646 123.201 17.4053 123.523 17.4087 123.989C17.4121 124.468 17.1646 124.801 17.0762 124.907" stroke="#040306" stroke-opacity="1.000000" stroke-width="0.111270" stroke-linejoin="round" stroke-linecap="round"/>
		</g>
		<g opacity="0.800000">
			<path id="Vector" d="M8.90039 127.677C8.90039 127.776 8.99072 127.856 9.10156 127.856C9.10156 127.856 10.9624 127.856 11.1616 127.856C11.271 127.833 11.4131 127.798 11.5723 127.738C11.7319 127.678 11.9087 127.596 12.0869 127.479C12.3228 127.325 12.4995 127.155 12.6294 126.997C12.7593 126.84 12.8442 126.697 12.8945 126.601C12.9414 126.211 12.981 125.798 13.0088 125.364C13.0366 124.93 13.0522 124.475 13.0522 124.001C13.0522 123.529 13.0366 123.076 13.0088 122.645C12.981 122.212 12.9429 121.801 12.8945 121.413C12.8564 121.327 12.792 121.198 12.688 121.054C12.5845 120.909 12.4385 120.749 12.2412 120.598C12.0264 120.437 11.8081 120.331 11.6172 120.263C11.4268 120.195 11.2637 120.163 11.1616 120.147C10.9346 120.147 9.10156 120.147 9.10156 120.147C8.99072 120.147 8.90039 120.226 8.90039 120.326L8.90039 127.677Z" stroke="#040306" stroke-opacity="1.000000" stroke-width="0.111270" stroke-linejoin="round"/>
		</g>
	</g>
	<g opacity="0.800000">
		<g opacity="0.800000">
			<path id="Vector" d="M34.3687 100.43C34.0859 100.43 33.8574 100.211 33.8574 99.9405C33.8574 99.6702 34.0859 99.4514 34.3687 99.4514C34.6509 99.4497 34.8813 99.6686 34.8813 99.9405C34.8813 100.211 34.6509 100.43 34.3687 100.43Z" stroke="#040306" stroke-opacity="1.000000" stroke-width="0.111270" stroke-linejoin="round"/>
		</g>
		<g opacity="0.800000">
			<path id="Vector" d="M33.6191 99.9436L35.1128 99.9436" stroke="#040306" stroke-opacity="1.000000" stroke-width="0.111270" stroke-linejoin="round" stroke-linecap="round"/>
		</g>
		<g opacity="0.800000">
			<path id="Vector" d="M34.3652 100.658L34.3652 99.2287" stroke="#040306" stroke-opacity="1.000000" stroke-width="0.111270" stroke-linejoin="round" stroke-linecap="round"/>
		</g>
		<g opacity="0.800000">
			<path id="Vector" d="M34.3652 97.9434C34.1626 97.9434 33.998 97.7859 33.998 97.5919C33.998 97.3979 34.1626 97.2404 34.3652 97.2404C34.5684 97.2404 34.7329 97.3979 34.7329 97.5919C34.7329 97.7859 34.5684 97.9434 34.3652 97.9434Z" stroke="#040306" stroke-opacity="1.000000" stroke-width="0.111270" stroke-linejoin="round"/>
		</g>
		<g opacity="0.800000">
			<path id="Vector" d="M33.7832 97.592L34.9561 97.592" stroke="#040306" stroke-opacity="1.000000" stroke-width="0.111270" stroke-linejoin="round" stroke-linecap="round"/>
		</g>
		<g opacity="0.800000">
			<path id="Vector" d="M34.3652 98.1558L34.3652 97.0334" stroke="#040306" stroke-opacity="1.000000" stroke-width="0.111270" stroke-linejoin="round" stroke-linecap="round"/>
		</g>
		<g opacity="0.800000">
			<path id="Vector" d="M39.918 98.8139C39.9131 98.6746 39.8989 98.4077 39.856 98.0711C39.8193 97.7943 39.7603 97.4511 39.6582 97.0598C39.5474 96.7432 39.438 96.4282 39.3271 96.1115C39.3271 96.1115 39.3257 96.1115 39.3237 96.1115C39.1836 96.1115 29.3745 96.1115 29.3325 96.1115L29.3291 96.1115C29.2183 96.4282 29.1094 96.7432 28.998 97.0598C28.896 97.4511 28.8369 97.7943 28.8008 98.0711C28.7573 98.406 28.7437 98.6729 28.7383 98.8139C28.7246 99.172 28.7368 99.4836 28.7573 99.7357C28.7642 100.085 28.8511 102.325 30.7485 103.787C32.1519 104.87 33.7236 104.893 34.3281 104.893C34.9331 104.893 36.5044 104.872 37.9082 103.787C39.8057 102.324 39.8921 100.085 39.8989 99.7357C39.918 99.4836 39.9302 99.172 39.918 98.8139Z" stroke="#040306" stroke-opacity="1.000000" stroke-width="0.111270" stroke-linejoin="round"/>
		</g>
		<g opacity="0.800000">
			<path id="Vector" d="M38.332 99.7976C38.3281 99.7877 38.3247 99.7794 38.3232 99.7711C38.3232 99.7711 38.2607 99.5987 38.124 99.4428C37.4028 98.6272 34.3672 98.6272 34.3672 98.6272C32.6987 98.6272 31.2949 98.7134 30.666 99.4412C30.5186 99.602 30.4736 99.7462 30.4668 99.7694C30.3887 99.9866 30.4165 100.249 30.4185 100.282C30.4355 100.532 30.4443 100.656 30.4824 100.835C30.7007 101.863 31.1494 102.502 31.1494 102.502C31.4839 102.977 31.8496 103.266 32.04 103.413C32.1929 103.533 32.4268 103.712 32.7646 103.876C33.5044 104.236 34.1855 104.254 34.3672 104.256C35.1694 104.261 35.7588 103.999 36.0254 103.876C36.2212 103.775 36.4775 103.626 36.75 103.413C36.937 103.268 37.3042 102.979 37.6406 102.502C37.6406 102.502 38.0942 101.857 38.3076 100.835C38.3301 100.724 38.3423 100.577 38.3701 100.283C38.3818 100.161 38.3926 99.9949 38.332 99.7976Z" stroke="#040306" stroke-opacity="1.000000" stroke-width="0.111270" stroke-linejoin="round"/>
		</g>
	</g>
	<path id="Vector" d="M14.4121 2.68967L14.4121 6.21762L13.4902 6.21762L13.4902 10.4502L4.82812 10.4502L4.82812 133.938L51.1831 133.938L51.1831 143.682L55.1455 143.682L55.1455 148.092L46.4834 148.092L46.4834 138.128L0.220703 138.128L0.220703 2.68967L14.4121 2.68967Z" fill="#040306" fill-opacity="1.000000" fill-rule="nonzero"/>
	<path id="Vector" d="M14.4121 6.21762L13.4902 6.21762L13.4902 10.4502L4.82812 10.4502L4.82812 133.938L51.1831 133.938L51.1831 143.682L55.1455 143.682L55.1455 148.092L46.4834 148.092L46.4834 138.128L0.220703 138.128L0.220703 2.68967L14.4121 2.68967L14.4121 6.21762Z" stroke="#040306" stroke-opacity="1.000000" stroke-width="0.441834" stroke-linejoin="round"/>
	<path id="Vector" d="M42.5762 2.68967L31.0098 2.68967L31.0098 6.30215L32.4619 6.30215L32.4619 10.4502L41.124 10.4502L41.124 6.30215L42.5762 6.30215L42.5762 2.68967Z" fill="#040306" fill-opacity="1.000000" fill-rule="nonzero"/>
	<path id="Vector" d="M31.0098 2.68967L31.0098 6.30215L32.4619 6.30215L32.4619 10.4502L41.124 10.4502L41.124 6.30215L42.5762 6.30215L42.5762 2.68967L31.0098 2.68967Z" stroke="#040306" stroke-opacity="1.000000" stroke-width="0.441834" stroke-linejoin="round"/>
	<path id="Vector" d="M81.873 2.68967L81.873 6.21762L82.7949 6.21762L82.7949 10.4054L91.918 10.4054L91.918 143.418L76.8965 143.418L76.8965 147.914L96.0659 147.914L96.0659 2.68967L81.873 2.68967Z" fill="#040306" fill-opacity="1.000000" fill-rule="nonzero"/>
	<path id="Vector" d="M81.873 6.21762L82.7949 6.21762L82.7949 10.4054L91.918 10.4054L91.918 143.418L76.8965 143.418L76.8965 147.914L96.0659 147.914L96.0659 2.68967L81.873 2.68967L81.873 6.21762Z" stroke="#040306" stroke-opacity="1.000000" stroke-width="0.441834" stroke-linejoin="round"/>
	<path id="Vector" d="M95.9722 0.220917L85.1895 0.220917L85.1895 2.99786L95.9722 2.99786L95.9722 0.220917Z" fill="#040306" fill-opacity="1.000000" fill-rule="nonzero"/>
	<path id="Vector" d="M95.9722 0.220917L95.9722 2.99786L85.1895 2.99786L85.1895 0.220917L95.9722 0.220917Z" stroke="#040306" stroke-opacity="1.000000" stroke-width="0.441834" stroke-linejoin="round"/>
	<path id="Vector" d="M28.2158 18.0594L27.6021 18.6463C27.5503 18.6944 27.4878 18.7193 27.415 18.7193C27.2368 18.7193 27.1465 18.6347 27.1465 18.464C27.1465 18.3943 27.1724 18.3347 27.2227 18.2866L28.2676 17.2869C28.3369 17.2206 28.4097 17.1858 28.4824 17.1858C28.6611 17.1858 28.7495 17.2703 28.7495 17.4411L28.7495 22.0417C28.7495 22.2124 28.6611 22.297 28.4824 22.297C28.3042 22.297 28.2158 22.2124 28.2158 22.0417L28.2158 18.0594Z" fill="#040306" fill-opacity="1.000000" fill-rule="nonzero"/>
	<path id="Vector" d="M31.041 19.7428L30.5073 19.7428C30.3291 19.7428 30.2407 19.6582 30.2407 19.4875C30.2407 19.3167 30.3291 19.2322 30.5073 19.2322L31.041 19.2322C31.2646 19.2322 31.4551 19.1576 31.6094 19.01C31.7651 18.8608 31.8418 18.6801 31.8418 18.4662C31.8418 18.254 31.7637 18.0733 31.6074 17.9241C31.4517 17.7749 31.2627 17.7003 31.041 17.7003L29.9722 17.7003C29.7935 17.7003 29.7051 17.6158 29.7051 17.445C29.7051 17.2742 29.7935 17.1897 29.9722 17.1897L31.041 17.1897C31.4102 17.1897 31.7256 17.3157 31.9873 17.566C32.2471 17.8163 32.377 18.1181 32.377 18.4679C32.377 18.8907 32.1987 19.2322 31.8433 19.4908C32.2002 19.7494 32.377 20.0893 32.377 20.5137L32.377 21.0243C32.377 21.3774 32.2451 21.6792 31.9839 21.9295C31.7222 22.1782 31.4067 22.3026 31.041 22.3026L29.9722 22.3026C29.7935 22.3026 29.7051 22.218 29.7051 22.0472C29.7051 21.8765 29.7935 21.7919 29.9722 21.7919L31.041 21.7919C31.2646 21.7919 31.4551 21.7173 31.6094 21.5698C31.7651 21.4206 31.8418 21.2398 31.8418 21.026L31.8418 20.5154C31.8418 20.3032 31.7637 20.1224 31.6074 19.9732C31.4517 19.824 31.2627 19.7428 31.041 19.7428Z" fill="#040306" fill-opacity="1.000000" fill-rule="nonzero"/>
	<path id="Vector" d="M33.6235 21.7873C33.8018 21.7873 33.8901 21.8719 33.8901 22.0393C33.8901 22.0625 33.7983 22.4256 33.6147 23.1269C33.5815 23.2562 33.4951 23.3209 33.355 23.3209C33.1763 23.3209 33.0879 23.2363 33.0879 23.0656C33.0879 22.9495 33.1797 22.5881 33.3633 21.9813C33.4014 21.852 33.4883 21.7873 33.6235 21.7873Z" fill="#040306" fill-opacity="1.000000" fill-rule="nonzero"/>
	<path id="Vector" d="M34.7246 21.0204C34.7246 20.9922 34.728 20.969 34.7334 20.9508L35.8022 17.3714C35.8403 17.2471 35.9272 17.1858 36.0625 17.1858C36.2407 17.1858 36.3291 17.272 36.3291 17.4427C36.3291 17.4659 36.3257 17.4908 36.3203 17.5157L35.3467 20.7651L36.5977 20.7651L36.5977 19.9975C36.5977 19.8268 36.686 19.7422 36.8647 19.7422C37.043 19.7422 37.1313 19.8268 37.1313 19.9975L37.1313 20.7651L37.665 20.7651C37.8438 20.7651 37.9321 20.8496 37.9321 21.0204C37.9321 21.1912 37.8438 21.2757 37.665 21.2757L37.1313 21.2757L37.1313 22.0433C37.1313 22.2141 37.043 22.2986 36.8647 22.2986C36.686 22.2986 36.5977 22.2141 36.5977 22.0433L36.5977 21.2757L34.9951 21.2757C34.8149 21.2757 34.7246 21.1895 34.7246 21.0204Z" fill="#040306" fill-opacity="1.000000" fill-rule="nonzero"/>
	<path id="Vector" d="M39.7559 19.9998L39.5566 19.9998C39.3784 19.9998 39.2881 19.9152 39.2881 19.7444C39.2881 19.5737 39.3765 19.4891 39.5547 19.4891L39.8701 19.4891L40.2896 17.7003L38.4873 17.7003C38.3091 17.7003 38.2207 17.6158 38.2207 17.445C38.2207 17.2742 38.3091 17.1897 38.4873 17.1897L40.624 17.1897C40.7988 17.1897 40.8892 17.2726 40.8911 17.4384C40.8911 17.4533 40.8872 17.4748 40.8823 17.4997L40.4194 19.4908L40.6221 19.4908C40.8008 19.4908 40.8892 19.5753 40.8892 19.7461C40.8892 19.9169 40.7988 20.0014 40.6206 20.0014L40.2949 20.0014L39.8115 22.1019C39.7783 22.2362 39.6934 22.3026 39.5566 22.3026C39.3765 22.3026 39.2847 22.218 39.2847 22.0472C39.2847 22.0207 39.2861 22.0025 39.29 21.9892L39.7559 19.9998Z" fill="#040306" fill-opacity="1.000000" fill-rule="nonzero"/>
	<path id="Vector" d="M76.0527 118.491L75.519 118.491C75.3408 118.491 75.2524 118.406 75.2524 118.235C75.2524 118.064 75.3408 117.98 75.519 117.98L76.0527 117.98C76.2764 117.98 76.4668 117.905 76.6211 117.758C76.7754 117.61 76.8535 117.428 76.8535 117.214C76.8535 117.002 76.7754 116.821 76.6191 116.672C76.4634 116.523 76.2744 116.446 76.0527 116.446L74.9839 116.446C74.8052 116.446 74.7168 116.362 74.7168 116.191C74.7168 116.02 74.8052 115.936 74.9839 115.936L76.0527 115.936C76.4219 115.936 76.7373 116.06 76.999 116.312C77.2588 116.562 77.3887 116.864 77.3887 117.214C77.3887 117.637 77.2104 117.978 76.855 118.237C77.2119 118.496 77.3887 118.835 77.3887 119.26L77.3887 119.77C77.3887 120.124 77.2568 120.425 76.9956 120.676C76.7339 120.924 76.4185 121.049 76.0527 121.049L74.9839 121.049C74.8052 121.049 74.7168 120.964 74.7168 120.793C74.7168 120.623 74.8052 120.538 74.9839 120.538L76.0527 120.538C76.2764 120.538 76.4668 120.463 76.6211 120.316C76.7754 120.168 76.8535 119.986 76.8535 119.772L76.8535 119.261C76.8535 119.049 76.7754 118.869 76.6191 118.719C76.4634 118.57 76.2729 118.491 76.0527 118.491Z" fill="#040306" fill-opacity="1.000000" fill-rule="nonzero"/>
	<path id="Vector" d="M78.6313 120.533C78.8096 120.533 78.8979 120.618 78.8979 120.785C78.8979 120.809 78.8062 121.172 78.6226 121.873C78.5894 122.002 78.5029 122.067 78.3628 122.067C78.1841 122.067 78.0957 121.982 78.0957 121.812C78.0957 121.696 78.1875 121.334 78.3711 120.727C78.4092 120.598 78.4961 120.533 78.6313 120.533Z" fill="#040306" fill-opacity="1.000000" fill-rule="nonzero"/>
	<path id="Vector" d="M81.0918 121.045C80.7227 121.045 80.4072 120.92 80.1455 120.672C79.8843 120.423 79.7559 120.121 79.7559 119.767L79.7559 119.256C79.7559 118.833 79.9346 118.492 80.2896 118.233C79.9326 117.974 79.7559 117.634 79.7559 117.21C79.7559 116.857 79.8857 116.555 80.1455 116.305C80.4058 116.055 80.7212 115.932 81.0918 115.932C81.4624 115.932 81.7764 116.056 82.0381 116.305C82.2979 116.554 82.4277 116.855 82.4277 117.21C82.4277 117.633 82.2495 117.974 81.894 118.233C82.1504 118.419 82.3115 118.647 82.3794 118.919C82.4121 119.057 82.4277 119.339 82.4277 119.768C82.4277 120.121 82.2979 120.423 82.0381 120.673C81.7764 120.92 81.4609 121.045 81.0918 121.045ZM81.0918 117.976C81.3154 117.976 81.5059 117.901 81.6602 117.754C81.8145 117.606 81.8926 117.424 81.8926 117.21C81.8926 116.998 81.8145 116.817 81.6582 116.668C81.5024 116.519 81.3135 116.442 81.0918 116.442C80.8682 116.442 80.6777 116.517 80.5234 116.665C80.3677 116.814 80.2915 116.995 80.2915 117.208C80.2915 117.422 80.3691 117.605 80.5234 117.752C80.6777 117.903 80.8682 117.976 81.0918 117.976ZM81.0918 120.532C81.3154 120.532 81.5059 120.458 81.6602 120.31C81.8145 120.163 81.8926 119.98 81.8926 119.767L81.8926 119.256C81.8926 119.044 81.8145 118.863 81.6582 118.714C81.5024 118.565 81.3135 118.488 81.0918 118.488C80.8682 118.488 80.6777 118.563 80.5234 118.71C80.3677 118.86 80.2915 119.04 80.2915 119.254L80.2915 119.765C80.2915 119.979 80.3691 120.161 80.5234 120.309C80.6777 120.458 80.8682 120.532 81.0918 120.532Z" fill="#040306" fill-opacity="1.000000" fill-rule="nonzero"/>
	<path id="Vector" d="M84.5898 118.491L84.0562 118.491C83.8774 118.491 83.7891 118.406 83.7891 118.235C83.7891 118.064 83.8774 117.98 84.0562 117.98L84.5898 117.98C84.813 117.98 85.0039 117.905 85.1582 117.758C85.312 117.61 85.3901 117.428 85.3901 117.214C85.3901 117.002 85.312 116.821 85.1562 116.672C85.0005 116.523 84.8115 116.446 84.5898 116.446L83.5205 116.446C83.3423 116.446 83.2539 116.362 83.2539 116.191C83.2539 116.02 83.3423 115.936 83.5205 115.936L84.5898 115.936C84.9585 115.936 85.2739 116.06 85.5342 116.312C85.7939 116.564 85.9238 116.864 85.9238 117.214C85.9238 117.637 85.7456 117.978 85.3901 118.237C85.7471 118.496 85.9238 118.835 85.9238 119.26L85.9238 119.77C85.9238 120.124 85.792 120.425 85.5308 120.676C85.269 120.924 84.9551 121.049 84.5879 121.049L83.519 121.049C83.3403 121.049 83.252 120.964 83.252 120.793C83.252 120.623 83.3403 120.538 83.519 120.538L84.5879 120.538C84.8115 120.538 85.002 120.463 85.1562 120.316C85.3105 120.168 85.3887 119.986 85.3887 119.772L85.3887 119.261C85.3887 119.049 85.3105 118.869 85.1543 118.719C84.9985 118.57 84.8115 118.491 84.5898 118.491Z" fill="#040306" fill-opacity="1.000000" fill-rule="nonzero"/>
	<path id="Vector" d="M28.3711 74.8811C28.7402 74.8811 29.0557 75.0054 29.3174 75.2541C29.5771 75.5028 29.7075 75.8045 29.7075 76.1593C29.7075 76.4013 29.626 76.6467 29.4648 76.8954L27.7803 79.4833L29.4404 79.4833C29.6191 79.4833 29.7075 79.5679 29.7075 79.7386C29.7075 79.9094 29.6191 79.994 29.4404 79.994L27.3042 79.994C27.1255 79.994 27.0371 79.9094 27.0371 79.7386C27.0371 79.6872 27.0527 79.6375 27.082 79.5911L29.04 76.582C29.1284 76.4444 29.1738 76.3052 29.1738 76.1593C29.1738 75.9471 29.0957 75.7664 28.9395 75.6172C28.7837 75.468 28.5947 75.3917 28.373 75.3917C28.0718 75.3917 27.791 75.6056 27.5342 76.0349C27.4858 76.1178 27.4097 76.1593 27.3042 76.1593C27.1255 76.1593 27.0371 76.0747 27.0371 75.904C27.0371 75.8658 27.0459 75.831 27.0615 75.7995C27.3921 75.1861 27.8291 74.8811 28.3711 74.8811Z" fill="#040306" fill-opacity="1.000000" fill-rule="nonzero"/>
	<path id="Vector" d="M31.0962 79.4787C31.2744 79.4787 31.3628 79.5633 31.3628 79.7307C31.3628 79.7539 31.271 80.117 31.0874 80.8183C31.0542 80.9476 30.9678 81.0123 30.8276 81.0123C30.6489 81.0123 30.5605 80.9277 30.5605 80.757C30.5605 80.6409 30.6523 80.2795 30.8359 79.6727C30.874 79.5434 30.9609 79.4787 31.0962 79.4787Z" fill="#040306" fill-opacity="1.000000" fill-rule="nonzero"/>
	<path id="Vector" d="M32.8433 79.9917C32.7725 79.9917 32.7114 79.9652 32.6577 79.9138C32.604 79.8624 32.5767 79.8027 32.5767 79.7347C32.5767 79.6154 32.6216 79.5424 32.71 79.5142C32.9038 79.4529 33.0669 79.3816 33.1948 79.3004C33.7705 78.9439 34.0908 78.4913 34.1582 77.9442L33.377 77.9442C33.0078 77.9442 32.6924 77.8199 32.4307 77.5712C32.1694 77.3225 32.041 77.0208 32.041 76.666L32.041 76.1554C32.041 75.8022 32.1709 75.5005 32.4307 75.2502C32.6909 74.9998 33.0063 74.8772 33.377 74.8772C33.7495 74.8772 34.0649 74.9998 34.3247 75.2469C34.5845 75.4939 34.7129 75.794 34.7129 76.1471L34.7129 77.6889C34.7129 78.556 34.29 79.2423 33.4463 79.7463C33.1743 79.9105 32.9731 79.9917 32.8433 79.9917ZM34.1792 77.4353L34.1792 76.157C34.1792 75.9448 34.1011 75.7641 33.9453 75.6149C33.7896 75.4657 33.6006 75.3894 33.3789 75.3894C33.1567 75.3894 32.9683 75.4641 32.812 75.6149C32.6562 75.7641 32.5781 75.9448 32.5781 76.157L32.5781 76.6677C32.5781 76.8815 32.6562 77.0639 32.8105 77.2115C32.9663 77.3607 33.1553 77.4336 33.3789 77.4336L34.1792 77.4336L34.1792 77.4353Z" fill="#040306" fill-opacity="1.000000" fill-rule="nonzero"/>
	<path id="Vector" d="M37.0059 79.994C36.6367 79.994 36.3213 79.8696 36.0596 79.6209C35.7983 79.3723 35.6699 79.0705 35.6699 78.7157L35.6699 78.2051C35.6699 77.7823 35.8486 77.4408 36.2036 77.1822C35.8467 76.9236 35.6699 76.5837 35.6699 76.1593C35.6699 75.8062 35.7998 75.5044 36.0596 75.2541C36.3198 75.0038 36.6353 74.8811 37.0059 74.8811C37.3765 74.8811 37.6904 75.0054 37.9521 75.2541C38.2119 75.5028 38.3418 75.8045 38.3418 76.1593C38.3418 76.5821 38.1636 76.9236 37.8081 77.1822C38.0645 77.3679 38.2256 77.5966 38.2935 77.8686C38.3262 78.0062 38.3418 78.288 38.3418 78.7174C38.3418 79.0705 38.2119 79.3723 37.9521 79.6226C37.6904 79.8696 37.375 79.994 37.0059 79.994ZM37.0059 76.9252C37.2295 76.9252 37.4199 76.8506 37.5742 76.7031C37.7285 76.5555 37.8066 76.3732 37.8066 76.1593C37.8066 75.9471 37.7285 75.7664 37.5723 75.6172C37.4165 75.468 37.2275 75.3917 37.0059 75.3917C36.7822 75.3917 36.5918 75.4663 36.4375 75.6139C36.2817 75.7631 36.2056 75.9438 36.2056 76.1576C36.2056 76.3715 36.2832 76.5539 36.4375 76.7014C36.5918 76.8523 36.7808 76.9252 37.0059 76.9252ZM37.0059 79.4817C37.2295 79.4817 37.4199 79.4071 37.5742 79.2595C37.7285 79.112 37.8066 78.9296 37.8066 78.7157L37.8066 78.2051C37.8066 77.9929 37.7285 77.8122 37.5723 77.663C37.4165 77.5138 37.2275 77.4375 37.0059 77.4375C36.7822 77.4375 36.5918 77.5121 36.4375 77.6597C36.2817 77.8089 36.2056 77.9896 36.2056 78.2034L36.2056 78.7141C36.2056 78.9279 36.2832 79.1103 36.4375 79.2578C36.5918 79.4071 36.7808 79.4817 37.0059 79.4817Z" fill="#040306" fill-opacity="1.000000" fill-rule="nonzero"/>
	<path id="Vector" d="M28.3691 119.487L27.8354 119.487C27.6572 119.487 27.5688 119.402 27.5688 119.231C27.5688 119.061 27.6572 118.976 27.8354 118.976L28.3691 118.976C28.5928 118.976 28.7832 118.901 28.9375 118.754C29.0918 118.606 29.1699 118.424 29.1699 118.21C29.1699 117.998 29.0918 117.817 28.9355 117.668C28.7798 117.519 28.5908 117.442 28.3691 117.442L27.3003 117.442C27.1216 117.442 27.0332 117.358 27.0332 117.187C27.0332 117.016 27.1216 116.932 27.3003 116.932L28.3691 116.932C28.7383 116.932 29.0537 117.056 29.3154 117.308C29.5752 117.559 29.7051 117.86 29.7051 118.21C29.7051 118.633 29.5269 118.974 29.1714 119.233C29.5283 119.492 29.7051 119.831 29.7051 120.256L29.7051 120.767C29.7051 121.12 29.5732 121.421 29.312 121.672C29.0503 121.92 28.7349 122.045 28.3691 122.045L27.3003 122.045C27.1216 122.045 27.0332 121.96 27.0332 121.789C27.0332 121.619 27.1216 121.534 27.3003 121.534L28.3691 121.534C28.5928 121.534 28.7832 121.46 28.9375 121.312C29.0918 121.164 29.1699 120.982 29.1699 120.768L29.1699 120.254C29.1699 120.042 29.0918 119.861 28.9355 119.712C28.7798 119.563 28.5908 119.487 28.3691 119.487Z" fill="#040306" fill-opacity="1.000000" fill-rule="nonzero"/>
	<path id="Vector" d="M30.9478 121.53C31.126 121.53 31.2144 121.614 31.2144 121.781C31.2144 121.805 31.1226 122.168 30.939 122.869C30.9058 122.998 30.8193 123.063 30.6787 123.063C30.5005 123.063 30.4121 122.978 30.4121 122.808C30.4121 122.692 30.5039 122.33 30.6875 121.723C30.7275 121.594 30.814 121.53 30.9478 121.53Z" fill="#040306" fill-opacity="1.000000" fill-rule="nonzero"/>
	<path id="Vector" d="M33.5098 116.928C33.8789 116.928 34.1943 117.052 34.4561 117.301C34.7158 117.55 34.8457 117.851 34.8457 118.206C34.8457 118.448 34.7642 118.694 34.603 118.942L32.9189 121.53L34.5791 121.53C34.7573 121.53 34.8457 121.615 34.8457 121.785C34.8457 121.956 34.7573 122.041 34.5791 122.041L32.4409 122.041C32.2622 122.041 32.1738 121.956 32.1738 121.785C32.1738 121.734 32.1895 121.684 32.2188 121.638L34.1768 118.629C34.2651 118.491 34.3105 118.352 34.3105 118.206C34.3105 117.994 34.2324 117.813 34.0762 117.664C33.9204 117.515 33.7314 117.439 33.5098 117.439C33.2085 117.439 32.9277 117.652 32.6709 118.082C32.6226 118.165 32.5464 118.206 32.4409 118.206C32.2622 118.206 32.1738 118.122 32.1738 117.951C32.1738 117.913 32.1826 117.878 32.1982 117.846C32.5308 117.235 32.9673 116.928 33.5098 116.928Z" fill="#040306" fill-opacity="1.000000" fill-rule="nonzero"/>
	<path id="Vector" d="M37.6177 116.928C37.7964 116.928 37.8848 117.012 37.8848 117.183C37.8848 117.309 37.8394 117.384 37.751 117.404C37.3545 117.5 37.0078 117.727 36.7114 118.085C36.4775 118.369 36.3408 118.665 36.3027 118.972L37.084 118.972C37.4619 118.972 37.7788 119.096 38.0352 119.343C38.2915 119.592 38.4199 119.894 38.4199 120.25L38.4199 120.761C38.4199 121.117 38.29 121.419 38.0303 121.668C37.77 121.916 37.4546 122.039 37.084 122.039C36.7114 122.039 36.396 121.916 36.1362 121.669C35.8765 121.422 35.748 121.122 35.748 120.769L35.748 119.227C35.748 118.649 35.9492 118.142 36.3511 117.705C36.6646 117.367 37.0059 117.127 37.375 116.984C37.479 116.948 37.5605 116.928 37.6177 116.928ZM36.2817 119.484L36.2817 120.763C36.2817 120.976 36.3599 121.159 36.5142 121.306C36.6699 121.456 36.8589 121.529 37.082 121.529C37.3057 121.529 37.4966 121.454 37.6504 121.305C37.8047 121.156 37.8828 120.975 37.8828 120.763L37.8828 120.252C37.8828 120.038 37.8047 119.856 37.6489 119.708C37.4932 119.561 37.3042 119.486 37.082 119.486L36.2817 119.486L36.2817 119.484Z" fill="#040306" fill-opacity="1.000000" fill-rule="nonzero"/>
</svg>
