<svg width="10.666504" height="12.003296" viewBox="0 0 10.6665 12.0033" fill="none" xmlns="http://www.w3.org/2000/svg" xmlns:xlink="http://www.w3.org/1999/xlink">
            <defs />
            <path id="Vector" d="M3.3335 1.33496C3.15674 1.33496 2.98682 1.40521 2.86182 1.53021C2.73682 1.65527 2.6665 1.82483 2.6665 2.00165C2.6665 2.17847 2.73682 2.34802 2.86182 2.47302C2.98682 2.59808 3.15674 2.66827 3.3335 2.66827C3.51025 2.66827 3.67969 2.59808 3.80469 2.47302C3.92969 2.34802 4 2.17847 4 2.00165C4 1.82483 3.92969 1.65527 3.80469 1.53021C3.67969 1.40521 3.51025 1.33496 3.3335 1.33496ZM1.44678 1.33496C1.58447 0.944641 1.83984 0.606567 2.17773 0.367493C2.51562 0.128418 2.91943 0 3.3335 0C3.74707 0 4.15088 0.128418 4.48877 0.367493C4.82666 0.606567 5.08203 0.944641 5.22021 1.33496L10 1.33496C10.1768 1.33496 10.3462 1.40521 10.4712 1.53021C10.5962 1.65527 10.6665 1.82483 10.6665 2.00165C10.6665 2.17847 10.5962 2.34802 10.4712 2.47302C10.3462 2.59808 10.1768 2.66827 10 2.66827L5.22021 2.66827C5.08203 3.05865 4.82666 3.39667 4.48877 3.6358C4.15088 3.87488 3.74707 4.0033 3.3335 4.0033C2.91943 4.0033 2.51562 3.87488 2.17773 3.6358C1.83984 3.39667 1.58447 3.05865 1.44678 2.66827L0.666504 2.66827C0.489746 2.66827 0.320312 2.59808 0.195312 2.47302C0.0703125 2.34802 0 2.17847 0 2.00165C0 1.82483 0.0703125 1.65527 0.195312 1.53021C0.320312 1.40521 0.489746 1.33496 0.666504 1.33496L1.44678 1.33496ZM7.3335 5.33496C7.15674 5.33496 6.98682 5.40521 6.86182 5.53021C6.73682 5.65527 6.6665 5.82483 6.6665 6.00165C6.6665 6.17847 6.73682 6.34802 6.86182 6.47302C6.98682 6.59808 7.15674 6.66827 7.3335 6.66827C7.51025 6.66827 7.67969 6.59808 7.80469 6.47302C7.92969 6.34802 8 6.17847 8 6.00165C8 5.82483 7.92969 5.65527 7.80469 5.53021C7.67969 5.40521 7.51025 5.33496 7.3335 5.33496ZM5.44678 5.33496C5.58447 4.94464 5.83984 4.60657 6.17773 4.36749C6.51562 4.12842 6.91943 4 7.3335 4C7.74707 4 8.15088 4.12842 8.48877 4.36749C8.82666 4.60657 9.08203 4.94464 9.22021 5.33496L10 5.33496C10.1768 5.33496 10.3462 5.40521 10.4712 5.53021C10.5962 5.65527 10.6665 5.82483 10.6665 6.00165C10.6665 6.17847 10.5962 6.34802 10.4712 6.47302C10.3462 6.59808 10.1768 6.66827 10 6.66827L9.22021 6.66827C9.08203 7.05865 8.82666 7.39667 8.48877 7.6358C8.15088 7.87488 7.74707 8.0033 7.3335 8.0033C6.91943 8.0033 6.51562 7.87488 6.17773 7.6358C5.83984 7.39667 5.58447 7.05865 5.44678 6.66827L0.666504 6.66827C0.489746 6.66827 0.320312 6.59808 0.195312 6.47302C0.0703125 6.34802 0 6.17847 0 6.00165C0 5.82483 0.0703125 5.65527 0.195312 5.53021C0.320312 5.40521 0.489746 5.33496 0.666504 5.33496L5.44678 5.33496ZM3.3335 9.33496C3.15674 9.33496 2.98682 9.40521 2.86182 9.53021C2.73682 9.65527 2.6665 9.82483 2.6665 10.0016C2.6665 10.1785 2.73682 10.348 2.86182 10.473C2.98682 10.5981 3.15674 10.6683 3.3335 10.6683C3.51025 10.6683 3.67969 10.5981 3.80469 10.473C3.92969 10.348 4 10.1785 4 10.0016C4 9.82483 3.92969 9.65527 3.80469 9.53021C3.67969 9.40521 3.51025 9.33496 3.3335 9.33496ZM1.44678 9.33496C1.58447 8.94464 1.83984 8.60657 2.17773 8.36749C2.51562 8.12842 2.91943 8 3.3335 8C3.74707 8 4.15088 8.12842 4.48877 8.36749C4.82666 8.60657 5.08203 8.94464 5.22021 9.33496L10 9.33496C10.1768 9.33496 10.3462 9.40521 10.4712 9.53021C10.5962 9.65527 10.6665 9.82483 10.6665 10.0016C10.6665 10.1785 10.5962 10.348 10.4712 10.473C10.3462 10.5981 10.1768 10.6683 10 10.6683L5.22021 10.6683C5.08203 11.0587 4.82666 11.3967 4.48877 11.6358C4.15088 11.8749 3.74707 12.0033 3.3335 12.0033C2.91943 12.0033 2.51562 11.8749 2.17773 11.6358C1.83984 11.3967 1.58447 11.0587 1.44678 10.6683L0.666504 10.6683C0.489746 10.6683 0.320312 10.5981 0.195312 10.473C0.0703125 10.348 0 10.1785 0 10.0016C0 9.82483 0.0703125 9.65527 0.195312 9.53021C0.320312 9.40521 0.489746 9.33496 0.666504 9.33496L1.44678 9.33496Z" fill="#FFFFFF" fill-opacity="1.000000" fill-rule="nonzero" />
          </svg>