<svg width="12.000000" height="12.000000" viewBox="0 0 12 12" fill="none" xmlns="http://www.w3.org/2000/svg" xmlns:xlink="http://www.w3.org/1999/xlink">
	<defs/>
	<g opacity="0.780000">
		<path id="Vector" d="M2.68 0.5L0 0.5L0 -0.5L3.5 -0.5L4 6.1e-5L4 3.5L3 3.5L3 1.5C2.1 2.17 1.45 3.12 1.17 4.2C0.88 5.29 0.96 6.44 1.4 7.47C1.84 8.5 2.62 9.35 3.6 9.88C4.58 10.42 5.72 10.61 6.82 10.43C7.93 10.24 8.94 9.69 9.69 8.86C10.45 8.03 10.9 6.97 10.98 5.86C11.06 4.74 10.77 3.63 10.14 2.7C9.51 1.77 8.59 1.08 7.53 0.73L7.83 -0.22C9.12 0.2 10.24 1.04 10.99 2.17C11.74 3.3 12.09 4.66 11.97 6.01C11.86 7.37 11.28 8.64 10.35 9.63C9.41 10.61 8.17 11.25 6.82 11.44C5.47 11.63 4.1 11.35 2.93 10.66C1.76 9.96 0.87 8.89 0.38 7.62C-0.1 6.35 -0.13 4.95 0.28 3.66C0.7 2.36 1.54 1.25 2.68 0.5Z" fill="#040306" fill-opacity="1.000000" fill-rule="evenodd"/>
	</g>
</svg>
